<?xml version="1.0" standalone="no"?>
<!DOCTYPE svg PUBLIC "-//W3C//DTD SVG 20010904//EN"
 "http://www.w3.org/TR/2001/REC-SVG-20010904/DTD/svg10.dtd">
<svg version="1.0" xmlns="http://www.w3.org/2000/svg"
 width="700.000000pt" height="700.000000pt" viewBox="0 0 700.000000 700.000000"
 preserveAspectRatio="xMidYMid meet">
<metadata>
Created by potrace 1.14, written by Peter Selinger 2001-2017
</metadata>
<g transform="translate(0.000000,700.000000) scale(0.100000,-0.100000)"
fill="#000000" stroke="none">
<path d="M1980 6044 c-65 -28 -63 -8 -63 -614 l0 -549 -238 -3 -239 -3 -27
-28 c-25 -25 -28 -34 -28 -95 0 -61 8 -165 19 -267 7 -54 17 -159 22 -220 4
-52 12 -129 19 -205 4 -39 14 -140 31 -325 2 -27 6 -70 9 -95 2 -25 7 -76 10
-115 3 -38 8 -88 10 -110 2 -22 7 -67 10 -100 9 -104 15 -169 20 -210 2 -22 7
-71 10 -110 6 -69 10 -115 20 -205 5 -46 11 -116 19 -205 3 -27 8 -81 11 -120
4 -38 8 -86 10 -105 8 -84 16 -168 20 -210 3 -25 7 -72 10 -105 3 -33 7 -82
10 -110 2 -27 7 -77 10 -110 3 -33 8 -82 10 -110 3 -27 7 -75 10 -105 3 -30 8
-71 10 -90 2 -19 7 -71 10 -115 3 -44 8 -93 10 -110 2 -16 7 -61 10 -100 17
-191 20 -205 62 -232 26 -17 107 -18 1722 -18 1621 0 1697 1 1723 19 36 23 40
40 53 201 3 39 7 86 10 105 2 19 7 64 10 100 12 128 14 156 20 220 3 36 8 85
10 110 3 25 7 70 10 100 9 101 16 175 20 210 2 19 7 64 10 100 3 36 8 85 10
110 2 25 7 79 11 120 4 41 8 89 10 105 1 17 5 65 9 107 3 43 8 86 10 96 2 10
6 61 10 113 4 52 8 96 10 99 2 3 6 50 10 104 4 55 8 107 10 115 1 9 6 54 9
101 4 47 9 101 11 120 3 19 7 64 10 100 3 36 7 81 10 100 2 19 7 69 10 110 10
109 23 248 30 310 2 19 7 69 10 110 3 41 8 91 10 110 3 19 7 62 10 95 2 33 7
87 10 120 6 64 11 109 21 220 4 39 8 84 10 100 9 84 6 136 -10 159 -31 48 -45
51 -306 53 -135 1 -251 2 -257 2 -10 1 -13 115 -13 537 0 463 -2 540 -15 569
-28 58 -37 59 -367 60 -271 0 -304 -2 -330 -18 -50 -30 -53 -50 -53 -358 l0
-284 -200 2 c-110 0 -206 2 -212 2 -10 1 -13 34 -13 131 0 98 -4 139 -15 160
-29 56 -41 58 -378 56 l-309 -1 -29 -33 c-16 -18 -30 -40 -30 -50 -1 -9 -3
-71 -4 -137 -1 -66 -3 -122 -4 -125 -1 -4 -341 -5 -373 -1 -5 1 -8 129 -7 285
0 307 -3 330 -54 358 -31 17 -607 19 -647 2z m490 -1039 l-1 -840 -31 60 c-55
106 -96 223 -113 323 -3 17 -8 47 -11 65 -3 17 -7 66 -8 109 -5 118 -40 158
-137 158 l-39 0 0 478 c0 263 2 481 4 483 3 2 79 4 170 4 l166 0 0 -840z
m2333 836 c4 0 7 -214 7 -475 l0 -474 -27 -7 c-46 -11 -82 -43 -87 -78 -3 -18
-8 -70 -11 -116 -11 -165 -54 -313 -137 -473 -91 -174 -83 -242 -82 741 0 476
3 871 6 876 5 8 289 13 331 6z m-1185 -1277 l2 -972 -20 -5 c-42 -11 -304 4
-318 17 -6 6 -11 1914 -5 1927 1 4 78 6 170 5 l168 -1 3 -971z m-560 -136 c1
-562 -1 -758 -9 -758 -35 0 -253 128 -309 181 l-25 24 0 645 c1 355 4 650 7
656 5 7 62 11 170 10 l163 -1 3 -757z m1160 74 l2 -682 -70 -46 c-67 -43 -261
-136 -269 -128 -2 2 -4 1309 -2 1495 l1 46 168 -1 167 -1 3 -683z m-2127 141
c4 -10 10 -43 14 -73 34 -262 169 -554 342 -741 83 -89 230 -207 338 -272 110
-65 308 -143 440 -173 125 -28 446 -26 579 4 262 60 481 179 656 357 125 127
116 118 164 183 139 191 232 410 261 615 3 20 7 54 10 74 3 20 7 38 9 40 2 2
414 6 477 4 12 -1 16 -9 13 -28 -1 -16 -8 -84 -14 -153 -6 -69 -13 -141 -15
-160 -2 -19 -6 -60 -9 -90 -8 -93 -18 -204 -21 -230 -2 -14 -6 -59 -9 -100 -4
-41 -9 -95 -11 -120 -11 -105 -14 -138 -20 -200 -3 -36 -8 -85 -10 -110 -2
-25 -7 -72 -10 -105 -3 -33 -7 -78 -10 -100 -2 -22 -7 -76 -11 -120 -3 -44 -8
-91 -9 -105 -1 -14 -5 -59 -9 -100 -9 -96 -16 -166 -21 -210 -2 -19 -7 -66
-10 -105 -8 -108 -16 -198 -20 -225 -2 -14 -6 -59 -10 -100 -3 -41 -8 -97 -11
-125 -2 -27 -7 -70 -9 -95 -3 -25 -7 -67 -10 -95 -6 -65 -20 -214 -31 -340 -2
-33 -7 -81 -9 -107 -10 -100 -16 -154 -20 -198 -3 -25 -7 -74 -11 -109 -3 -36
-7 -67 -9 -70 -2 -4 -709 -6 -1571 -6 -1385 0 -1567 2 -1569 15 -1 8 -5 47 -9
85 -4 39 -9 93 -11 120 -12 120 -14 144 -20 210 -3 39 -8 88 -10 110 -3 22 -7
72 -10 110 -4 39 -8 81 -10 95 -2 14 -7 61 -10 105 -4 44 -8 94 -10 110 -1 17
-6 64 -9 105 -4 41 -9 91 -11 110 -3 19 -7 67 -10 105 -3 39 -8 88 -10 110 -5
46 -11 109 -20 215 -8 88 -13 139 -20 200 -2 25 -7 77 -10 115 -3 39 -8 86
-10 105 -2 19 -7 69 -10 110 -3 41 -8 91 -10 110 -2 19 -7 64 -10 100 -3 36
-8 81 -10 100 -2 19 -7 73 -10 119 -4 47 -8 92 -10 100 -1 9 -6 52 -9 96 -4
44 -9 101 -11 128 -3 26 -7 70 -10 97 -11 107 -14 148 -20 220 -4 41 -8 86
-10 100 -2 14 -7 61 -10 104 -3 44 -8 83 -11 87 -6 10 115 15 326 12 148 -2
165 -4 171 -20z"/>
<path d="M3400 2873 c-181 -23 -370 -132 -477 -276 -95 -128 -141 -269 -141
-430 0 -329 223 -609 547 -687 63 -15 211 -20 261 -9 19 4 50 11 68 14 19 3
61 17 95 30 219 90 385 293 427 525 67 370 -157 721 -522 815 -59 16 -200 25
-258 18z m241 -233 c287 -96 425 -431 286 -694 -130 -245 -421 -340 -665 -217
-299 151 -363 550 -127 787 137 137 328 183 506 124z"/>
</g>
</svg>
